<?xml version="1.0" encoding="utf-8" ?>
<!DOCTYPE svg PUBLIC "-//W3C//DTD SVG 1.1//EN" "http://www.w3.org/Graphics/SVG/1.1/DTD/svg11.dtd">
<svg height="444" version="1.1" width="1028" xmlns="http://www.w3.org/2000/svg">
<rect fill="#ffffff" height="184" stroke="#ffffff" stroke-width="1" width="238" x="14" y="30"/>
<rect fill="none" height="184" stroke="#000000" stroke-width="1" width="238" x="14" y="30"/>
<text font-family="Dialog" font-size="12" x="118" y="43">
User</text>
<rect fill="#000000" height="1" stroke="#000000" stroke-width="1" width="238" x="14" y="53"/>
<text font-family="Dialog" font-size="12" x="18" y="67">
username : String</text>
<text font-family="Dialog" font-size="12" x="18" y="83">
password : String</text>
<text font-family="Dialog" font-size="12" x="18" y="99">
firstname : String</text>
<text font-family="Dialog" font-size="12" x="18" y="115">
lastname : String</text>
<text font-family="Dialog" font-size="12" x="18" y="131">
email : String</text>
<rect fill="#000000" height="1" stroke="#000000" stroke-width="1" width="238" x="14" y="141"/>
<text font-family="Dialog" font-size="12" x="18" y="155">
addUser(user : User)</text>
<text font-family="Dialog" font-size="12" x="18" y="171">
updateUser(user : User)</text>
<text font-family="Dialog" font-size="12" x="18" y="187">
getAllGroupsOfUser() : Collection</text>
<text font-family="Dialog" font-size="12" x="18" y="203">
getAllBookmarksOfUser() : Collection</text>
<rect fill="#ffffff" height="216" stroke="#ffffff" stroke-width="1" width="479" x="422" y="30"/>
<rect fill="none" height="216" stroke="#000000" stroke-width="1" width="479" x="422" y="30"/>
<text font-family="Dialog" font-size="12" x="630" y="43">
Bookmark</text>
<rect fill="#000000" height="1" stroke="#000000" stroke-width="1" width="479" x="422" y="53"/>
<text font-family="Dialog" font-size="12" x="426" y="67">
title : Integer</text>
<text font-family="Dialog" font-size="12" x="426" y="83">
description : String</text>
<text font-family="Dialog" font-size="12" x="426" y="99">
creationDate : Date</text>
<text font-family="Dialog" font-size="12" x="426" y="115">
modificationDate : Date</text>
<rect fill="#000000" height="1" stroke="#000000" stroke-width="1" width="479" x="422" y="133"/>
<text font-family="Dialog" font-size="12" x="426" y="147">
addBookmark(bookmark : Bookmark)</text>
<text font-family="Dialog" font-size="12" x="426" y="163">
getBookmarkByIdForUser(bookmarkId : Integer,userId : Integer) : Bookmark</text>
<text font-family="Dialog" font-size="12" x="426" y="179">
getOwnerOftheBookmark() : User</text>
<text font-family="Dialog" font-size="12" x="426" y="195">
shareBookmarkWithTheGroup(groupId : Integer)</text>
<text font-family="Dialog" font-size="12" x="426" y="211">
getAllGroupsWithWhichTheBookmarkIsSharedWith() : Collection</text>
<text font-family="Dialog" font-size="12" x="426" y="227">
getAllTagsOfTheBookmark() : Collection</text>
<rect fill="#ffffff" height="104" stroke="#ffffff" stroke-width="1" width="314" x="454" y="326"/>
<rect fill="none" height="104" stroke="#000000" stroke-width="1" width="314" x="454" y="326"/>
<text font-family="Dialog" font-size="12" x="599" y="339">
Tag</text>
<rect fill="#000000" height="1" stroke="#000000" stroke-width="1" width="314" x="454" y="349"/>
<text font-family="Dialog" font-size="12" x="458" y="363">
tagName : String</text>
<rect fill="#000000" height="1" stroke="#000000" stroke-width="1" width="314" x="454" y="373"/>
<text font-family="Dialog" font-size="12" x="458" y="387">
addTag(tag : Tag)</text>
<text font-family="Dialog" font-size="12" x="458" y="403">
getTagByTagName(tagName : String) : Tag</text>
<text font-family="Dialog" font-size="12" x="458" y="419">
getAllBookmarksAssociatedWithTag() : Collection</text>
<rect fill="#ffffff" height="104" stroke="#ffffff" stroke-width="1" width="314" x="14" y="326"/>
<rect fill="none" height="104" stroke="#000000" stroke-width="1" width="314" x="14" y="326"/>
<text font-family="Dialog" font-size="12" x="152" y="339">
Group</text>
<rect fill="#000000" height="1" stroke="#000000" stroke-width="1" width="314" x="14" y="349"/>
<text font-family="Dialog" font-size="12" x="18" y="363">
name : String</text>
<rect fill="#000000" height="1" stroke="#000000" stroke-width="1" width="314" x="14" y="373"/>
<text font-family="Dialog" font-size="12" x="18" y="387">
createGroup(group : Group)</text>
<text font-family="Dialog" font-size="12" x="18" y="403">
getGroupsOfUser(userId : Integer) : Collection</text>
<text font-family="Dialog" font-size="12" x="18" y="419">
getBookmarksSharedWithTheGroup() : Collection</text>
<polyline fill="none" points="78,213 78,326" stroke="#000000" stroke-width="1"/>
<line fill="#000000" stroke="#000000" stroke-width="1" x1="71" x2="78" y1="314" y2="326"/>
<line fill="#000000" stroke="#000000" stroke-width="1" x1="85" x2="78" y1="314" y2="326"/>
<text font-family="Dialog" font-size="12" x="80" y="274">
owns</text>
<text font-family="Dialog" font-size="12" x="57" y="228">
1</text>
<text font-family="Dialog" font-size="12" x="50" y="322">
0..*</text>
<polyline fill="none" points="150,326 150,213" stroke="#000000" stroke-width="1"/>
<line fill="#000000" stroke="#000000" stroke-width="1" x1="157" x2="150" y1="225" y2="213"/>
<line fill="#000000" stroke="#000000" stroke-width="1" x1="143" x2="150" y1="225" y2="213"/>
<text font-family="Dialog" font-size="12" x="153" y="269">
contains</text>
<text font-family="Dialog" font-size="12" x="156" y="322">
0..*</text>
<text font-family="Dialog" font-size="12" x="156" y="227">
1..*</text>
<polyline fill="none" points="251,78 422,78" stroke="#000000" stroke-width="1"/>
<line fill="#000000" stroke="#000000" stroke-width="1" x1="410" x2="422" y1="85" y2="78"/>
<line fill="#000000" stroke="#000000" stroke-width="1" x1="410" x2="422" y1="71" y2="78"/>
<text font-family="Dialog" font-size="12" x="292" y="58">
owns</text>
<text font-family="Dialog" font-size="12" x="262" y="73">
1</text>
<text font-family="Dialog" font-size="12" x="396" y="73">
0..*</text>
<polyline fill="none" points="502,245 502,326" stroke="#000000" stroke-width="1"/>
<line fill="#000000" stroke="#000000" stroke-width="1" x1="495" x2="502" y1="314" y2="326"/>
<line fill="#000000" stroke="#000000" stroke-width="1" x1="509" x2="502" y1="314" y2="326"/>
<text font-family="Dialog" font-size="12" x="508" y="290">
has</text>
<text font-family="Dialog" font-size="12" x="508" y="262">
1..*</text>
<text font-family="Dialog" font-size="12" x="508" y="320">
0..*</text>
<rect fill="#ffffff" height="64" stroke="#ffffff" stroke-width="1" width="104" x="910" y="14"/>
<rect fill="none" height="64" stroke="#000000" stroke-width="1" width="104" x="910" y="14"/>
<text font-family="Dialog" font-size="12" x="947" y="46">
Date</text>
<text font-family="Dialog" font-size="12" x="914" y="28">
&lt;&lt;datatype&gt;&gt;</text>
<rect fill="#000000" height="1" stroke="#000000" stroke-width="1" width="104" x="910" y="56"/>
<rect fill="#ffffff" height="64" stroke="#ffffff" stroke-width="1" width="104" x="910" y="94"/>
<rect fill="none" height="64" stroke="#000000" stroke-width="1" width="104" x="910" y="94"/>
<text font-family="Dialog" font-size="12" x="931" y="126">
Collection</text>
<text font-family="Dialog" font-size="12" x="914" y="108">
&lt;&lt;datatype&gt;&gt;</text>
<rect fill="#000000" height="1" stroke="#000000" stroke-width="1" width="104" x="910" y="136"/>
<polyline fill="none" points="422,126 342,126 342,358 327,358" stroke="#000000" stroke-width="1"/>
<line fill="#000000" stroke="#000000" stroke-width="1" x1="339" x2="327" y1="351" y2="358"/>
<line fill="#000000" stroke="#000000" stroke-width="1" x1="339" x2="327" y1="365" y2="358"/>
<text font-family="Dialog" font-size="12" x="345" y="214">
sharedWith</text>
<text font-family="Dialog" font-size="12" x="403" y="121">
1</text>
<text font-family="Dialog" font-size="12" x="344" y="297">
0..*</text>
<rect fill="#ffffff" height="69" stroke="#ffffff" stroke-width="1" width="113" x="798" y="334"/>
<rect fill="none" height="69" stroke="#000000" stroke-width="1" width="113" x="798" y="334"/>
<text font-family="Dialog" font-size="12" x="843" y="347">
URL</text>
<rect fill="#000000" height="1" stroke="#000000" stroke-width="1" width="113" x="798" y="357"/>
<text font-family="Dialog" font-size="12" x="802" y="371">
url : String</text>
<rect fill="#000000" height="1" stroke="#000000" stroke-width="1" width="113" x="798" y="381"/>
<polyline fill="none" points="900,245 900,334" stroke="#000000" stroke-width="1"/>
<text font-family="Dialog" font-size="12" x="906" y="272">
1..*</text>
<text font-family="Dialog" font-size="12" x="913" y="317">
1</text>
</svg>
