<?xml version="1.0" encoding="UTF-8" standalone="no"?>
<!DOCTYPE svg PUBLIC "-//W3C//DTD SVG 1.1//EN"
 "http://www.w3.org/Graphics/SVG/1.1/DTD/svg11.dtd">
<!-- Generated by graphviz version 2.38.0 (20140413.2041)
 -->
<!-- Title: controllers_diagram Pages: 1 -->
<svg width="935pt" height="1266pt"
 viewBox="0.00 0.00 934.59 1265.60" xmlns="http://www.w3.org/2000/svg" xmlns:xlink="http://www.w3.org/1999/xlink">
<g id="graph0" class="graph" transform="scale(1 1) rotate(0) translate(364.135 613.355)">
<title>controllers_diagram</title>
<polygon fill="white" stroke="none" points="-364.135,652.246 -364.135,-613.355 570.45,-613.355 570.45,652.246 -364.135,652.246"/>
<!-- _diagram_info -->
<g id="node1" class="node"><title>_diagram_info</title>
<text text-anchor="start" x="367.55" y="300.9" font-family="Times,serif" font-size="13.00">Controllers diagram</text>
<text text-anchor="start" x="367.55" y="313.9" font-family="Times,serif" font-size="13.00">Date: Jul 12 2014 &#45; 19:38</text>
<text text-anchor="start" x="367.55" y="326.9" font-family="Times,serif" font-size="13.00">Migration version: 20140712120011</text>
<text text-anchor="start" x="367.55" y="339.9" font-family="Times,serif" font-size="13.00">Generated by RailRoady 1.1.1</text>
<text text-anchor="start" x="367.55" y="352.9" font-family="Times,serif" font-size="13.00">http://railroady.prestonlee.com</text>
</g>
<!-- Api::V1::BookmarksController -->
<g id="node2" class="node"><title>Api::V1::BookmarksController</title>
<path fill="none" stroke="black" d="M-348.135,-3.26659C-348.135,-3.26659 -180.37,-3.26659 -180.37,-3.26659 -174.37,-3.26659 -168.37,-9.26659 -168.37,-15.2666 -168.37,-15.2666 -168.37,-249.267 -168.37,-249.267 -168.37,-255.267 -174.37,-261.267 -180.37,-261.267 -180.37,-261.267 -348.135,-261.267 -348.135,-261.267 -354.135,-261.267 -360.135,-255.267 -360.135,-249.267 -360.135,-249.267 -360.135,-15.2666 -360.135,-15.2666 -360.135,-9.26659 -354.135,-3.26659 -348.135,-3.26659"/>
<text text-anchor="middle" x="-264.253" y="-246.067" font-family="Times,serif" font-size="14.00">Api::V1::BookmarksController</text>
<polyline fill="none" stroke="black" points="-360.135,-239.267 -168.37,-239.267 "/>
<text text-anchor="start" x="-352.135" y="-224.067" font-family="Times,serif" font-size="14.00">_callback_before_24</text>
<text text-anchor="start" x="-352.135" y="-210.067" font-family="Times,serif" font-size="14.00">deletebookmark</text>
<text text-anchor="start" x="-352.135" y="-196.067" font-family="Times,serif" font-size="14.00">index</text>
<text text-anchor="start" x="-352.135" y="-182.067" font-family="Times,serif" font-size="14.00">loadmore</text>
<text text-anchor="start" x="-352.135" y="-168.067" font-family="Times,serif" font-size="14.00">savebookmark</text>
<text text-anchor="start" x="-352.135" y="-154.067" font-family="Times,serif" font-size="14.00">share_bookmark_to_groups</text>
<text text-anchor="start" x="-352.135" y="-140.067" font-family="Times,serif" font-size="14.00">timeline</text>
<text text-anchor="start" x="-352.135" y="-126.067" font-family="Times,serif" font-size="14.00">updatebookmark</text>
<polyline fill="none" stroke="black" points="-360.135,-119.267 -168.37,-119.267 "/>
<polyline fill="none" stroke="black" points="-360.135,-95.2666 -168.37,-95.2666 "/>
<text text-anchor="start" x="-352.135" y="-80.0666" font-family="Times,serif" font-size="14.00">_layout</text>
<text text-anchor="start" x="-352.135" y="-66.0666" font-family="Times,serif" font-size="14.00">bookmarks_formatter</text>
<text text-anchor="start" x="-352.135" y="-52.0666" font-family="Times,serif" font-size="14.00">save_bookmark_params</text>
<text text-anchor="start" x="-352.135" y="-38.0666" font-family="Times,serif" font-size="14.00">share_to_group_params</text>
<text text-anchor="start" x="-352.135" y="-24.0666" font-family="Times,serif" font-size="14.00">strip_bookmark_to_json</text>
<text text-anchor="start" x="-352.135" y="-10.0666" font-family="Times,serif" font-size="14.00">update_bookmark_params</text>
</g>
<!-- Api::V1::GroupsController -->
<g id="node3" class="node"><title>Api::V1::GroupsController</title>
<path fill="none" stroke="black" d="M-69.2255,-43.3956C-69.2255,-43.3956 75.2091,-43.3956 75.2091,-43.3956 81.2091,-43.3956 87.2091,-49.3956 87.2091,-55.3956 87.2091,-55.3956 87.2091,-331.396 87.2091,-331.396 87.2091,-337.396 81.2091,-343.396 75.2091,-343.396 75.2091,-343.396 -69.2255,-343.396 -69.2255,-343.396 -75.2255,-343.396 -81.2255,-337.396 -81.2255,-331.396 -81.2255,-331.396 -81.2255,-55.3956 -81.2255,-55.3956 -81.2255,-49.3956 -75.2255,-43.3956 -69.2255,-43.3956"/>
<text text-anchor="middle" x="2.99179" y="-328.196" font-family="Times,serif" font-size="14.00">Api::V1::GroupsController</text>
<polyline fill="none" stroke="black" points="-81.2255,-321.396 87.2091,-321.396 "/>
<text text-anchor="start" x="-73.2255" y="-306.196" font-family="Times,serif" font-size="14.00">_callback_before_25</text>
<text text-anchor="start" x="-73.2255" y="-292.196" font-family="Times,serif" font-size="14.00">accept_invite</text>
<text text-anchor="start" x="-73.2255" y="-278.196" font-family="Times,serif" font-size="14.00">index</text>
<text text-anchor="start" x="-73.2255" y="-264.196" font-family="Times,serif" font-size="14.00">loadmore</text>
<text text-anchor="start" x="-73.2255" y="-250.196" font-family="Times,serif" font-size="14.00">reject_invite</text>
<text text-anchor="start" x="-73.2255" y="-236.196" font-family="Times,serif" font-size="14.00">requests</text>
<text text-anchor="start" x="-73.2255" y="-222.196" font-family="Times,serif" font-size="14.00">savebookmark</text>
<text text-anchor="start" x="-73.2255" y="-208.196" font-family="Times,serif" font-size="14.00">timeline</text>
<text text-anchor="start" x="-73.2255" y="-194.196" font-family="Times,serif" font-size="14.00">unsubscribe</text>
<polyline fill="none" stroke="black" points="-81.2255,-187.396 87.2091,-187.396 "/>
<polyline fill="none" stroke="black" points="-81.2255,-163.396 87.2091,-163.396 "/>
<text text-anchor="start" x="-73.2255" y="-148.196" font-family="Times,serif" font-size="14.00">_layout</text>
<text text-anchor="start" x="-73.2255" y="-134.196" font-family="Times,serif" font-size="14.00">bookmarks_formatter</text>
<text text-anchor="start" x="-73.2255" y="-120.196" font-family="Times,serif" font-size="14.00">group_member?</text>
<text text-anchor="start" x="-73.2255" y="-106.196" font-family="Times,serif" font-size="14.00">group_owner?</text>
<text text-anchor="start" x="-73.2255" y="-92.1956" font-family="Times,serif" font-size="14.00">groups_formatter</text>
<text text-anchor="start" x="-73.2255" y="-78.1956" font-family="Times,serif" font-size="14.00">save_bookmark_params</text>
<text text-anchor="start" x="-73.2255" y="-64.1956" font-family="Times,serif" font-size="14.00">set_group</text>
<text text-anchor="start" x="-73.2255" y="-50.1956" font-family="Times,serif" font-size="14.00">strip_bookmark_to_json</text>
</g>
<!-- Api::V1::SearchesController -->
<g id="node4" class="node"><title>Api::V1::SearchesController</title>
<path fill="none" stroke="black" d="M-103.158,508.59C-103.158,508.59 51.3594,508.59 51.3594,508.59 57.3594,508.59 63.3594,502.59 63.3594,496.59 63.3594,496.59 63.3594,346.59 63.3594,346.59 63.3594,340.59 57.3594,334.59 51.3594,334.59 51.3594,334.59 -103.158,334.59 -103.158,334.59 -109.158,334.59 -115.158,340.59 -115.158,346.59 -115.158,346.59 -115.158,496.59 -115.158,496.59 -115.158,502.59 -109.158,508.59 -103.158,508.59"/>
<text text-anchor="middle" x="-25.8994" y="349.79" font-family="Times,serif" font-size="14.00">Api::V1::SearchesController</text>
<polyline fill="none" stroke="black" points="-115.158,356.59 63.3594,356.59 "/>
<text text-anchor="start" x="-107.158" y="371.79" font-family="Times,serif" font-size="14.00">_callback_before_26</text>
<text text-anchor="start" x="-107.158" y="385.79" font-family="Times,serif" font-size="14.00">search_bookmark</text>
<text text-anchor="start" x="-107.158" y="399.79" font-family="Times,serif" font-size="14.00">search_bookmark_in_groups</text>
<text text-anchor="start" x="-107.158" y="413.79" font-family="Times,serif" font-size="14.00">searchmore</text>
<text text-anchor="start" x="-107.158" y="427.79" font-family="Times,serif" font-size="14.00">searchmore_in_groups</text>
<polyline fill="none" stroke="black" points="-115.158,434.59 63.3594,434.59 "/>
<polyline fill="none" stroke="black" points="-115.158,458.59 63.3594,458.59 "/>
<text text-anchor="start" x="-107.158" y="473.79" font-family="Times,serif" font-size="14.00">_layout</text>
<text text-anchor="start" x="-107.158" y="487.79" font-family="Times,serif" font-size="14.00">bookmarks_formatter</text>
<text text-anchor="start" x="-107.158" y="501.79" font-family="Times,serif" font-size="14.00">strip_bookmark_to_json</text>
</g>
<!-- ApplicationController -->
<g id="node5" class="node"><title>ApplicationController</title>
<path fill="none" stroke="black" d="M-105.277,149.831C-105.277,149.831 68.6548,149.831 68.6548,149.831 74.6548,149.831 80.6548,143.831 80.6548,137.831 80.6548,137.831 80.6548,29.8308 80.6548,29.8308 80.6548,23.8308 74.6548,17.8308 68.6548,17.8308 68.6548,17.8308 -105.277,17.8308 -105.277,17.8308 -111.277,17.8308 -117.277,23.8308 -117.277,29.8308 -117.277,29.8308 -117.277,137.831 -117.277,137.831 -117.277,143.831 -111.277,149.831 -105.277,149.831"/>
<text text-anchor="middle" x="-18.3111" y="33.0308" font-family="Times,serif" font-size="14.00">ApplicationController</text>
<polyline fill="none" stroke="black" points="-117.277,39.8308 80.6548,39.8308 "/>
<polyline fill="none" stroke="black" points="-117.277,63.8308 80.6548,63.8308 "/>
<text text-anchor="start" x="-109.277" y="79.0308" font-family="Times,serif" font-size="14.00">configure_permitted_parameters</text>
<text text-anchor="start" x="-109.277" y="93.0308" font-family="Times,serif" font-size="14.00">get_annotations</text>
<text text-anchor="start" x="-109.277" y="107.031" font-family="Times,serif" font-size="14.00">process_uri</text>
<polyline fill="none" stroke="black" points="-117.277,113.831 80.6548,113.831 "/>
<text text-anchor="start" x="-109.277" y="129.031" font-family="Times,serif" font-size="14.00">_layout</text>
<text text-anchor="start" x="-109.277" y="143.031" font-family="Times,serif" font-size="14.00">after_sign_in_path_for</text>
</g>
<!-- ApplicationController&#45;&gt;Api::V1::BookmarksController -->
<g id="edge1" class="edge"><title>ApplicationController&#45;&gt;Api::V1::BookmarksController</title>
<path fill="none" stroke="black" d="M-93.438,17.8203C-117.029,-2.90805 -143.403,-26.0818 -168.235,-47.9005"/>
</g>
<!-- ApplicationController&#45;&gt;Api::V1::GroupsController -->
<g id="edge2" class="edge"><title>ApplicationController&#45;&gt;Api::V1::GroupsController</title>
<path fill="none" stroke="black" d="M-13.2356,17.7804C-11.808,-0.797235 -10.1944,-21.7967 -8.5522,-43.1669"/>
</g>
<!-- ApplicationController&#45;&gt;Api::V1::SearchesController -->
<g id="edge3" class="edge"><title>ApplicationController&#45;&gt;Api::V1::SearchesController</title>
<path fill="none" stroke="black" d="M-19.8012,150.158C-20.9839,202.799 -22.6472,276.833 -23.938,334.288"/>
</g>
<!-- BookmarksController -->
<g id="node6" class="node"><title>BookmarksController</title>
<path fill="none" stroke="black" d="M116.512,-238.855C116.512,-238.855 265.582,-238.855 265.582,-238.855 271.582,-238.855 277.582,-244.855 277.582,-250.855 277.582,-250.855 277.582,-596.855 277.582,-596.855 277.582,-602.855 271.582,-608.855 265.582,-608.855 265.582,-608.855 116.512,-608.855 116.512,-608.855 110.512,-608.855 104.512,-602.855 104.512,-596.855 104.512,-596.855 104.512,-250.855 104.512,-250.855 104.512,-244.855 110.512,-238.855 116.512,-238.855"/>
<text text-anchor="middle" x="191.047" y="-593.655" font-family="Times,serif" font-size="14.00">BookmarksController</text>
<polyline fill="none" stroke="black" points="104.512,-586.855 277.582,-586.855 "/>
<text text-anchor="start" x="112.512" y="-571.655" font-family="Times,serif" font-size="14.00">bookmarklet</text>
<text text-anchor="start" x="112.512" y="-557.655" font-family="Times,serif" font-size="14.00">create</text>
<text text-anchor="start" x="112.512" y="-543.655" font-family="Times,serif" font-size="14.00">destroy</text>
<text text-anchor="start" x="112.512" y="-529.655" font-family="Times,serif" font-size="14.00">edit</text>
<text text-anchor="start" x="112.512" y="-515.655" font-family="Times,serif" font-size="14.00">editbookmark</text>
<text text-anchor="start" x="112.512" y="-501.655" font-family="Times,serif" font-size="14.00">index</text>
<text text-anchor="start" x="112.512" y="-487.655" font-family="Times,serif" font-size="14.00">loadmore</text>
<text text-anchor="start" x="112.512" y="-473.655" font-family="Times,serif" font-size="14.00">new</text>
<text text-anchor="start" x="112.512" y="-459.655" font-family="Times,serif" font-size="14.00">savebookmark</text>
<text text-anchor="start" x="112.512" y="-445.655" font-family="Times,serif" font-size="14.00">saveurl</text>
<text text-anchor="start" x="112.512" y="-431.655" font-family="Times,serif" font-size="14.00">share_bookmark_to_groups</text>
<text text-anchor="start" x="112.512" y="-417.655" font-family="Times,serif" font-size="14.00">show</text>
<text text-anchor="start" x="112.512" y="-403.655" font-family="Times,serif" font-size="14.00">show_image</text>
<text text-anchor="start" x="112.512" y="-389.655" font-family="Times,serif" font-size="14.00">timeline</text>
<text text-anchor="start" x="112.512" y="-375.655" font-family="Times,serif" font-size="14.00">update</text>
<text text-anchor="start" x="112.512" y="-361.655" font-family="Times,serif" font-size="14.00">updatebookmark</text>
<polyline fill="none" stroke="black" points="104.512,-354.855 277.582,-354.855 "/>
<polyline fill="none" stroke="black" points="104.512,-330.855 277.582,-330.855 "/>
<text text-anchor="start" x="112.512" y="-315.655" font-family="Times,serif" font-size="14.00">_layout</text>
<text text-anchor="start" x="112.512" y="-301.655" font-family="Times,serif" font-size="14.00">bookmark_params</text>
<text text-anchor="start" x="112.512" y="-287.655" font-family="Times,serif" font-size="14.00">link_params</text>
<text text-anchor="start" x="112.512" y="-273.655" font-family="Times,serif" font-size="14.00">set_bookmark</text>
<text text-anchor="start" x="112.512" y="-259.655" font-family="Times,serif" font-size="14.00">share_to_group_params</text>
<text text-anchor="start" x="112.512" y="-245.655" font-family="Times,serif" font-size="14.00">timeline_bookmark_params</text>
</g>
<!-- ApplicationController&#45;&gt;BookmarksController -->
<g id="edge4" class="edge"><title>ApplicationController&#45;&gt;BookmarksController</title>
<path fill="none" stroke="black" d="M49.6776,17.5869C64.8371,-0.0185046 79.599,-19.8372 90.4091,-40.1956 122.865,-101.318 145.348,-173.579 160.686,-238.812"/>
</g>
<!-- DeliciousController -->
<g id="node7" class="node"><title>DeliciousController</title>
<path fill="none" stroke="black" d="M-259,-374.913C-259,-374.913 -155.8,-374.913 -155.8,-374.913 -149.8,-374.913 -143.8,-380.913 -143.8,-386.913 -143.8,-386.913 -143.8,-480.913 -143.8,-480.913 -143.8,-486.913 -149.8,-492.913 -155.8,-492.913 -155.8,-492.913 -259,-492.913 -259,-492.913 -265,-492.913 -271,-486.913 -271,-480.913 -271,-480.913 -271,-386.913 -271,-386.913 -271,-380.913 -265,-374.913 -259,-374.913"/>
<text text-anchor="middle" x="-207.4" y="-477.713" font-family="Times,serif" font-size="14.00">DeliciousController</text>
<polyline fill="none" stroke="black" points="-271,-470.913 -143.8,-470.913 "/>
<text text-anchor="start" x="-263" y="-455.713" font-family="Times,serif" font-size="14.00">authorize</text>
<text text-anchor="start" x="-263" y="-441.713" font-family="Times,serif" font-size="14.00">import</text>
<polyline fill="none" stroke="black" points="-271,-434.913 -143.8,-434.913 "/>
<polyline fill="none" stroke="black" points="-271,-410.913 -143.8,-410.913 "/>
<text text-anchor="start" x="-263" y="-395.713" font-family="Times,serif" font-size="14.00">_layout</text>
<text text-anchor="start" x="-263" y="-381.713" font-family="Times,serif" font-size="14.00">set_client_details</text>
</g>
<!-- ApplicationController&#45;&gt;DeliciousController -->
<g id="edge5" class="edge"><title>ApplicationController&#45;&gt;DeliciousController</title>
<path fill="none" stroke="black" d="M-56.5122,17.6784C-66.3251,-0.724643 -76.3734,-20.9495 -84.4255,-40.1956 -132.655,-155.473 -172.272,-296.529 -192.609,-374.659"/>
</g>
<!-- GroupsController -->
<g id="node8" class="node"><title>GroupsController</title>
<path fill="none" stroke="black" d="M-322.568,647.746C-322.568,647.746 -207.746,647.746 -207.746,647.746 -201.746,647.746 -195.746,641.746 -195.746,635.746 -195.746,635.746 -195.746,289.746 -195.746,289.746 -195.746,283.746 -201.746,277.746 -207.746,277.746 -207.746,277.746 -322.568,277.746 -322.568,277.746 -328.568,277.746 -334.568,283.746 -334.568,289.746 -334.568,289.746 -334.568,635.746 -334.568,635.746 -334.568,641.746 -328.568,647.746 -322.568,647.746"/>
<text text-anchor="middle" x="-265.157" y="292.946" font-family="Times,serif" font-size="14.00">GroupsController</text>
<polyline fill="none" stroke="black" points="-334.568,299.746 -195.746,299.746 "/>
<text text-anchor="start" x="-326.568" y="314.946" font-family="Times,serif" font-size="14.00">accept_invite</text>
<text text-anchor="start" x="-326.568" y="328.946" font-family="Times,serif" font-size="14.00">cancel_invite</text>
<text text-anchor="start" x="-326.568" y="342.946" font-family="Times,serif" font-size="14.00">create</text>
<text text-anchor="start" x="-326.568" y="356.946" font-family="Times,serif" font-size="14.00">destroy</text>
<text text-anchor="start" x="-326.568" y="370.946" font-family="Times,serif" font-size="14.00">edit</text>
<text text-anchor="start" x="-326.568" y="384.946" font-family="Times,serif" font-size="14.00">group_invites</text>
<text text-anchor="start" x="-326.568" y="398.946" font-family="Times,serif" font-size="14.00">index</text>
<text text-anchor="start" x="-326.568" y="412.946" font-family="Times,serif" font-size="14.00">invite_users</text>
<text text-anchor="start" x="-326.568" y="426.946" font-family="Times,serif" font-size="14.00">members</text>
<text text-anchor="start" x="-326.568" y="440.946" font-family="Times,serif" font-size="14.00">new</text>
<text text-anchor="start" x="-326.568" y="454.946" font-family="Times,serif" font-size="14.00">owned_groups</text>
<text text-anchor="start" x="-326.568" y="468.946" font-family="Times,serif" font-size="14.00">pending_members</text>
<text text-anchor="start" x="-326.568" y="482.946" font-family="Times,serif" font-size="14.00">remove_user</text>
<text text-anchor="start" x="-326.568" y="496.946" font-family="Times,serif" font-size="14.00">shareable_groups</text>
<text text-anchor="start" x="-326.568" y="510.946" font-family="Times,serif" font-size="14.00">show</text>
<text text-anchor="start" x="-326.568" y="524.946" font-family="Times,serif" font-size="14.00">unsubscribe</text>
<text text-anchor="start" x="-326.568" y="538.946" font-family="Times,serif" font-size="14.00">update</text>
<polyline fill="none" stroke="black" points="-334.568,545.746 -195.746,545.746 "/>
<polyline fill="none" stroke="black" points="-334.568,569.746 -195.746,569.746 "/>
<text text-anchor="start" x="-326.568" y="584.946" font-family="Times,serif" font-size="14.00">_layout</text>
<text text-anchor="start" x="-326.568" y="598.946" font-family="Times,serif" font-size="14.00">group_params</text>
<text text-anchor="start" x="-326.568" y="612.946" font-family="Times,serif" font-size="14.00">set_group</text>
<text text-anchor="start" x="-326.568" y="626.946" font-family="Times,serif" font-size="14.00">share_params</text>
<text text-anchor="start" x="-326.568" y="640.946" font-family="Times,serif" font-size="14.00">user_receiver_params</text>
</g>
<!-- ApplicationController&#45;&gt;GroupsController -->
<g id="edge6" class="edge"><title>ApplicationController&#45;&gt;GroupsController</title>
<path fill="none" stroke="black" d="M-61.3084,149.833C-98.3274,206.658 -152.444,289.728 -195.616,355.999"/>
</g>
<!-- PagesController -->
<g id="node9" class="node"><title>PagesController</title>
<path fill="none" stroke="black" d="M202.673,-29.1504C202.673,-29.1504 284.88,-29.1504 284.88,-29.1504 290.88,-29.1504 296.88,-35.1504 296.88,-41.1504 296.88,-41.1504 296.88,-135.15 296.88,-135.15 296.88,-141.15 290.88,-147.15 284.88,-147.15 284.88,-147.15 202.673,-147.15 202.673,-147.15 196.673,-147.15 190.673,-141.15 190.673,-135.15 190.673,-135.15 190.673,-41.1504 190.673,-41.1504 190.673,-35.1504 196.673,-29.1504 202.673,-29.1504"/>
<text text-anchor="middle" x="243.776" y="-131.95" font-family="Times,serif" font-size="14.00">PagesController</text>
<polyline fill="none" stroke="black" points="190.673,-125.15 296.88,-125.15 "/>
<text text-anchor="start" x="198.673" y="-109.95" font-family="Times,serif" font-size="14.00">about</text>
<text text-anchor="start" x="198.673" y="-95.9504" font-family="Times,serif" font-size="14.00">contact</text>
<text text-anchor="start" x="198.673" y="-81.9504" font-family="Times,serif" font-size="14.00">tools</text>
<polyline fill="none" stroke="black" points="190.673,-75.1504 296.88,-75.1504 "/>
<polyline fill="none" stroke="black" points="190.673,-51.1504 296.88,-51.1504 "/>
<text text-anchor="start" x="198.673" y="-35.9504" font-family="Times,serif" font-size="14.00">_layout</text>
</g>
<!-- ApplicationController&#45;&gt;PagesController -->
<g id="edge7" class="edge"><title>ApplicationController&#45;&gt;PagesController</title>
<path fill="none" stroke="black" d="M80.773,18.8121C118.027,-5.63406 158.952,-32.4885 190.475,-53.1742"/>
</g>
<!-- SearchesController -->
<g id="node10" class="node"><title>SearchesController</title>
<path fill="none" stroke="black" d="M-321.528,244.517C-321.528,244.517 -206.707,244.517 -206.707,244.517 -200.707,244.517 -194.707,238.517 -194.707,232.517 -194.707,232.517 -194.707,68.5169 -194.707,68.5169 -194.707,62.5169 -200.707,56.5169 -206.707,56.5169 -206.707,56.5169 -321.528,56.5169 -321.528,56.5169 -327.528,56.5169 -333.528,62.5169 -333.528,68.5169 -333.528,68.5169 -333.528,232.517 -333.528,232.517 -333.528,238.517 -327.528,244.517 -321.528,244.517"/>
<text text-anchor="middle" x="-264.118" y="71.7169" font-family="Times,serif" font-size="14.00">SearchesController</text>
<polyline fill="none" stroke="black" points="-333.528,78.5169 -194.707,78.5169 "/>
<text text-anchor="start" x="-325.528" y="93.7169" font-family="Times,serif" font-size="14.00">index</text>
<text text-anchor="start" x="-325.528" y="107.717" font-family="Times,serif" font-size="14.00">receiver</text>
<text text-anchor="start" x="-325.528" y="121.717" font-family="Times,serif" font-size="14.00">search_bookmark</text>
<text text-anchor="start" x="-325.528" y="135.717" font-family="Times,serif" font-size="14.00">search_user</text>
<text text-anchor="start" x="-325.528" y="149.717" font-family="Times,serif" font-size="14.00">searchmore</text>
<polyline fill="none" stroke="black" points="-333.528,156.517 -194.707,156.517 "/>
<polyline fill="none" stroke="black" points="-333.528,180.517 -194.707,180.517 "/>
<text text-anchor="start" x="-325.528" y="195.717" font-family="Times,serif" font-size="14.00">_layout</text>
<text text-anchor="start" x="-325.528" y="209.717" font-family="Times,serif" font-size="14.00">link_search_params</text>
<text text-anchor="start" x="-325.528" y="223.717" font-family="Times,serif" font-size="14.00">user_receiver_params</text>
<text text-anchor="start" x="-325.528" y="237.717" font-family="Times,serif" font-size="14.00">user_search_params</text>
</g>
<!-- ApplicationController&#45;&gt;SearchesController -->
<g id="edge8" class="edge"><title>ApplicationController&#45;&gt;SearchesController</title>
<path fill="none" stroke="black" d="M-117.582,110.762C-143.431,117.775 -170.729,125.181 -194.668,131.675"/>
</g>
<!-- UrlsController -->
<g id="node11" class="node"><title>UrlsController</title>
<path fill="none" stroke="black" d="M186.693,292.052C186.693,292.052 260.349,292.052 260.349,292.052 266.349,292.052 272.349,286.052 272.349,280.052 272.349,280.052 272.349,102.052 272.349,102.052 272.349,96.0522 266.349,90.0522 260.349,90.0522 260.349,90.0522 186.693,90.0522 186.693,90.0522 180.693,90.0522 174.693,96.0522 174.693,102.052 174.693,102.052 174.693,280.052 174.693,280.052 174.693,286.052 180.693,292.052 186.693,292.052"/>
<text text-anchor="middle" x="223.521" y="105.252" font-family="Times,serif" font-size="14.00">UrlsController</text>
<polyline fill="none" stroke="black" points="174.693,112.052 272.349,112.052 "/>
<text text-anchor="start" x="182.693" y="127.252" font-family="Times,serif" font-size="14.00">create</text>
<text text-anchor="start" x="182.693" y="141.252" font-family="Times,serif" font-size="14.00">destroy</text>
<text text-anchor="start" x="182.693" y="155.252" font-family="Times,serif" font-size="14.00">edit</text>
<text text-anchor="start" x="182.693" y="169.252" font-family="Times,serif" font-size="14.00">index</text>
<text text-anchor="start" x="182.693" y="183.252" font-family="Times,serif" font-size="14.00">new</text>
<text text-anchor="start" x="182.693" y="197.252" font-family="Times,serif" font-size="14.00">show</text>
<text text-anchor="start" x="182.693" y="211.252" font-family="Times,serif" font-size="14.00">update</text>
<polyline fill="none" stroke="black" points="174.693,218.052 272.349,218.052 "/>
<polyline fill="none" stroke="black" points="174.693,242.052 272.349,242.052 "/>
<text text-anchor="start" x="182.693" y="257.252" font-family="Times,serif" font-size="14.00">_layout</text>
<text text-anchor="start" x="182.693" y="271.252" font-family="Times,serif" font-size="14.00">set_url</text>
<text text-anchor="start" x="182.693" y="285.252" font-family="Times,serif" font-size="14.00">url_params</text>
</g>
<!-- ApplicationController&#45;&gt;UrlsController -->
<g id="edge9" class="edge"><title>ApplicationController&#45;&gt;UrlsController</title>
<path fill="none" stroke="black" d="M80.7491,127.751C113.098,142.094 147.606,157.394 174.592,169.358"/>
</g>
<!-- UsersController -->
<g id="node12" class="node"><title>UsersController</title>
<path fill="none" stroke="black" d="M181.892,524.094C181.892,524.094 263.32,524.094 263.32,524.094 269.32,524.094 275.32,518.094 275.32,512.094 275.32,512.094 275.32,446.094 275.32,446.094 275.32,440.094 269.32,434.094 263.32,434.094 263.32,434.094 181.892,434.094 181.892,434.094 175.892,434.094 169.892,440.094 169.892,446.094 169.892,446.094 169.892,512.094 169.892,512.094 169.892,518.094 175.892,524.094 181.892,524.094"/>
<text text-anchor="middle" x="222.606" y="449.294" font-family="Times,serif" font-size="14.00">UsersController</text>
<polyline fill="none" stroke="black" points="169.892,456.094 275.32,456.094 "/>
<text text-anchor="start" x="177.892" y="471.294" font-family="Times,serif" font-size="14.00">show</text>
<polyline fill="none" stroke="black" points="169.892,478.094 275.32,478.094 "/>
<polyline fill="none" stroke="black" points="169.892,502.094 275.32,502.094 "/>
<text text-anchor="start" x="177.892" y="517.294" font-family="Times,serif" font-size="14.00">_layout</text>
</g>
<!-- ApplicationController&#45;&gt;UsersController -->
<g id="edge10" class="edge"><title>ApplicationController&#45;&gt;UsersController</title>
<path fill="none" stroke="black" d="M22.013,149.989C71.1063,230.534 152.699,364.4 195.109,433.98"/>
</g>
</g>
</svg>
