<?xml version="1.0" encoding="UTF-8" standalone="no"?>
<!DOCTYPE svg PUBLIC "-//W3C//DTD SVG 1.1//EN"
 "http://www.w3.org/Graphics/SVG/1.1/DTD/svg11.dtd">
<!-- Generated by graphviz version 2.38.0 (20140413.2041)
 -->
<!-- Title: models_diagram Pages: 1 -->
<svg width="455pt" height="369pt"
 viewBox="0.00 0.00 454.62 369.00" xmlns="http://www.w3.org/2000/svg" xmlns:xlink="http://www.w3.org/1999/xlink">
<g id="graph0" class="graph" transform="scale(1 1) rotate(0) translate(4 365)">
<title>models_diagram</title>
<polygon fill="white" stroke="none" points="-4,4 -4,-365 450.622,-365 450.622,4 -4,4"/>
<!-- _diagram_info -->
<g id="node1" class="node"><title>_diagram_info</title>
<text text-anchor="start" x="8" y="-346.6" font-family="Times,serif" font-size="13.00">Models diagram</text>
<text text-anchor="start" x="8" y="-333.6" font-family="Times,serif" font-size="13.00">Date: Jul 12 2014 &#45; 19:38</text>
<text text-anchor="start" x="8" y="-320.6" font-family="Times,serif" font-size="13.00">Migration version: 20140712120011</text>
<text text-anchor="start" x="8" y="-307.6" font-family="Times,serif" font-size="13.00">Generated by RailRoady 1.1.1</text>
<text text-anchor="start" x="8" y="-294.6" font-family="Times,serif" font-size="13.00">http://railroady.prestonlee.com</text>
</g>
<!-- Bookmark -->
<g id="node2" class="node"><title>Bookmark</title>
<ellipse fill="none" stroke="black" cx="364.45" cy="-90" rx="47.3823" ry="18"/>
<text text-anchor="middle" x="364.45" y="-85.8" font-family="Times,serif" font-size="14.00">Bookmark</text>
</g>
<!-- Tag -->
<g id="node5" class="node"><title>Tag</title>
<ellipse fill="none" stroke="black" cx="262.45" cy="-18" rx="27" ry="18"/>
<text text-anchor="middle" x="262.45" y="-13.8" font-family="Times,serif" font-size="14.00">Tag</text>
</g>
<!-- Bookmark&#45;&gt;Tag -->
<g id="edge1" class="edge"><title>Bookmark&#45;&gt;Tag</title>
<path fill="none" stroke="#b080fc" d="M333.877,-68.0187C319.616,-58.2318 302.802,-46.693 289.071,-37.2698"/>
<polygon fill="#b080fc" stroke="#b080fc" points="334.323,-68.3248 340.022,-77.6936 338.446,-71.154 342.568,-73.9832 342.568,-73.9832 342.568,-73.9832 338.446,-71.154 345.114,-70.2729 334.323,-68.3248 334.323,-68.3248"/>
<polygon fill="#b080fc" stroke="#b080fc" points="288.796,-37.0811 283.098,-27.7123 284.674,-34.2518 280.551,-31.4226 280.551,-31.4226 280.551,-31.4226 284.674,-34.2518 278.005,-35.1329 288.796,-37.0811 288.796,-37.0811"/>
</g>
<!-- Group -->
<g id="node3" class="node"><title>Group</title>
<ellipse fill="none" stroke="black" cx="275.45" cy="-234" rx="32.9081" ry="18"/>
<text text-anchor="middle" x="275.45" y="-229.8" font-family="Times,serif" font-size="14.00">Group</text>
</g>
<!-- Group&#45;&gt;Bookmark -->
<g id="edge5" class="edge"><title>Group&#45;&gt;Bookmark</title>
<path fill="none" stroke="#3a059e" d="M277.277,-207.848C279.637,-189.007 285.048,-163.266 297.45,-144 305.783,-131.055 318.374,-119.893 330.4,-111.198"/>
<ellipse fill="none" stroke="#3a059e" cx="276.825" cy="-211.995" rx="4.00001" ry="4.00001"/>
<polygon fill="#3a059e" stroke="#3a059e" points="330.74,-110.965 341.532,-109.023 334.864,-108.138 338.988,-105.312 338.988,-105.312 338.988,-105.312 334.864,-108.138 336.444,-101.6 330.74,-110.965 330.74,-110.965"/>
</g>
<!-- Membership -->
<g id="node4" class="node"><title>Membership</title>
<ellipse fill="none" stroke="black" cx="244.45" cy="-90" rx="54.6162" ry="18"/>
<text text-anchor="middle" x="244.45" y="-85.8" font-family="Times,serif" font-size="14.00">Membership</text>
</g>
<!-- Group&#45;&gt;Membership -->
<g id="edge3" class="edge"><title>Group&#45;&gt;Membership</title>
<path fill="none" stroke="#c04cd4" d="M269.976,-207.929C264.474,-182.725 256.019,-143.994 250.365,-118.095"/>
<ellipse fill="none" stroke="#c04cd4" cx="270.857" cy="-211.964" rx="4.00001" ry="4.00001"/>
<polygon fill="#c04cd4" stroke="#c04cd4" points="250.335,-117.959 252.599,-107.229 249.269,-113.074 248.202,-108.189 248.202,-108.189 248.202,-108.189 249.269,-113.074 243.806,-109.149 250.335,-117.959 250.335,-117.959"/>
</g>
<!-- User -->
<g id="node7" class="node"><title>User</title>
<ellipse fill="none" stroke="black" cx="333.45" cy="-162" rx="27" ry="18"/>
<text text-anchor="middle" x="333.45" y="-157.8" font-family="Times,serif" font-size="14.00">User</text>
</g>
<!-- Group&#45;&gt;User -->
<g id="edge4" class="edge"><title>Group&#45;&gt;User</title>
<path fill="none" stroke="#1479a6" d="M295.086,-209.301C301.177,-201.95 307.884,-193.855 313.965,-186.517"/>
<polygon fill="#1479a6" stroke="#1479a6" points="294.991,-209.416 285.146,-214.245 291.801,-213.266 288.611,-217.116 288.611,-217.116 288.611,-217.116 291.801,-213.266 292.076,-219.987 294.991,-209.416 294.991,-209.416"/>
<polygon fill="#1479a6" stroke="#1479a6" points="314.359,-186.04 324.204,-181.211 317.549,-182.19 320.739,-178.34 320.739,-178.34 320.739,-178.34 317.549,-182.19 317.274,-175.469 314.359,-186.04 314.359,-186.04"/>
</g>
<!-- Url -->
<g id="node6" class="node"><title>Url</title>
<ellipse fill="none" stroke="black" cx="405.45" cy="-162" rx="27" ry="18"/>
<text text-anchor="middle" x="405.45" y="-157.8" font-family="Times,serif" font-size="14.00">Url</text>
</g>
<!-- Url&#45;&gt;Bookmark -->
<g id="edge9" class="edge"><title>Url&#45;&gt;Bookmark</title>
<path fill="none" stroke="#888b99" d="M391.735,-137.585C387.783,-130.837 383.451,-123.441 379.426,-116.569"/>
<ellipse fill="none" stroke="#888b99" cx="393.919" cy="-141.313" rx="4.00002" ry="4.00002"/>
<polygon fill="#888b99" stroke="#888b99" points="379.246,-116.262 378.075,-105.359 376.719,-111.948 374.192,-107.633 374.192,-107.633 374.192,-107.633 376.719,-111.948 370.309,-109.908 379.246,-116.262 379.246,-116.262"/>
</g>
<!-- User&#45;&gt;Bookmark -->
<g id="edge11" class="edge"><title>User&#45;&gt;Bookmark</title>
<path fill="none" stroke="#3e794d" d="M344.051,-137.062C346.898,-130.632 349.992,-123.647 352.888,-117.106"/>
<ellipse fill="none" stroke="#3e794d" cx="342.416" cy="-140.754" rx="4.00002" ry="4.00002"/>
<polygon fill="#3e794d" stroke="#3e794d" points="352.891,-117.1 361.055,-109.778 354.916,-112.528 356.941,-107.956 356.941,-107.956 356.941,-107.956 354.916,-112.528 352.826,-106.134 352.891,-117.1 352.891,-117.1"/>
</g>
<!-- User&#45;&gt;Membership -->
<g id="edge12" class="edge"><title>User&#45;&gt;Membership</title>
<path fill="none" stroke="#aeb17f" d="M310.095,-142.631C298.593,-133.585 284.637,-122.608 272.555,-113.105"/>
<ellipse fill="none" stroke="#aeb17f" cx="313.565" cy="-145.361" rx="4.00002" ry="4.00002"/>
<polygon fill="#aeb17f" stroke="#aeb17f" points="272.403,-112.986 267.325,-103.266 268.473,-109.895 264.543,-106.803 264.543,-106.803 264.543,-106.803 268.473,-109.895 261.761,-110.341 272.403,-112.986 272.403,-112.986"/>
</g>
<!-- ActiveRecord::Base -->
<g id="node8" class="node"><title>ActiveRecord::Base</title>
<ellipse fill="none" stroke="black" cx="306.45" cy="-324.5" rx="81.1422" ry="18"/>
<text text-anchor="middle" x="306.45" y="-320.3" font-family="Times,serif" font-size="14.00">ActiveRecord::Base</text>
</g>
<!-- ActiveRecord::Base&#45;&gt;Bookmark -->
<g id="edge2" class="edge"><title>ActiveRecord::Base&#45;&gt;Bookmark</title>
<path fill="none" stroke="black" d="M330.538,-307.257C363.05,-283.689 419.44,-236.584 441.45,-180 447.25,-165.088 448.895,-158.162 441.45,-144 431.784,-125.613 412.534,-112.363 395.7,-103.71"/>
</g>
<!-- ActiveRecord::Base&#45;&gt;Group -->
<g id="edge6" class="edge"><title>ActiveRecord::Base&#45;&gt;Group</title>
<path fill="none" stroke="black" d="M300.473,-306.436C294.948,-290.665 286.788,-267.37 281.303,-251.711"/>
</g>
<!-- ActiveRecord::Base&#45;&gt;Membership -->
<g id="edge7" class="edge"><title>ActiveRecord::Base&#45;&gt;Membership</title>
<path fill="none" stroke="black" d="M281.359,-307.138C264.303,-294.408 243.142,-275.059 233.45,-252 212.932,-203.185 228.706,-138.694 238.368,-108.281"/>
</g>
<!-- ActiveRecord::Base&#45;&gt;Tag -->
<g id="edge8" class="edge"><title>ActiveRecord::Base&#45;&gt;Tag</title>
<path fill="none" stroke="black" d="M279.384,-307.365C260.245,-294.619 235.423,-275.152 220.45,-252 184.378,-196.225 189.421,-173.815 180.45,-108 178.289,-92.1466 172.8,-86.0528 180.45,-72 192.768,-49.3703 219.367,-34.9288 238.945,-26.9298"/>
</g>
<!-- ActiveRecord::Base&#45;&gt;Url -->
<g id="edge10" class="edge"><title>ActiveRecord::Base&#45;&gt;Url</title>
<path fill="none" stroke="black" d="M316.857,-306.627C336.02,-275.56 376.643,-209.702 395.476,-179.169"/>
</g>
<!-- ActiveRecord::Base&#45;&gt;User -->
<g id="edge13" class="edge"><title>ActiveRecord::Base&#45;&gt;User</title>
<path fill="none" stroke="black" d="M309.339,-306.324C314.536,-275.432 325.399,-210.855 330.581,-180.053"/>
</g>
</g>
</svg>
