<?xml version="1.0" encoding="UTF-8" standalone="no"?>
<!DOCTYPE svg PUBLIC "-//W3C//DTD SVG 1.1//EN"
 "http://www.w3.org/Graphics/SVG/1.1/DTD/svg11.dtd">
<!-- Generated by graphviz version 2.38.0 (20140413.2041)
 -->
<!-- Title: models_diagram Pages: 1 -->
<svg width="675pt" height="811pt"
 viewBox="0.00 0.00 674.99 811.00" xmlns="http://www.w3.org/2000/svg" xmlns:xlink="http://www.w3.org/1999/xlink">
<g id="graph0" class="graph" transform="scale(1 1) rotate(0) translate(4 807)">
<title>models_diagram</title>
<polygon fill="white" stroke="none" points="-4,4 -4,-807 670.994,-807 670.994,4 -4,4"/>
<!-- _diagram_info -->
<g id="node1" class="node"><title>_diagram_info</title>
<text text-anchor="start" x="8" y="-788.6" font-family="Times,serif" font-size="13.00">Models diagram</text>
<text text-anchor="start" x="8" y="-775.6" font-family="Times,serif" font-size="13.00">Date: Jul 12 2014 &#45; 19:38</text>
<text text-anchor="start" x="8" y="-762.6" font-family="Times,serif" font-size="13.00">Migration version: 20140712120011</text>
<text text-anchor="start" x="8" y="-749.6" font-family="Times,serif" font-size="13.00">Generated by RailRoady 1.1.1</text>
<text text-anchor="start" x="8" y="-736.6" font-family="Times,serif" font-size="13.00">http://railroady.prestonlee.com</text>
</g>
<!-- Bookmark -->
<g id="node2" class="node"><title>Bookmark</title>
<path fill="none" stroke="black" d="M326.944,-123.5C326.944,-123.5 435.955,-123.5 435.955,-123.5 441.955,-123.5 447.955,-129.5 447.955,-135.5 447.955,-135.5 447.955,-253.5 447.955,-253.5 447.955,-259.5 441.955,-265.5 435.955,-265.5 435.955,-265.5 326.944,-265.5 326.944,-265.5 320.944,-265.5 314.944,-259.5 314.944,-253.5 314.944,-253.5 314.944,-135.5 314.944,-135.5 314.944,-129.5 320.944,-123.5 326.944,-123.5"/>
<text text-anchor="middle" x="381.45" y="-250.3" font-family="Times,serif" font-size="14.00">Bookmark</text>
<polyline fill="none" stroke="black" points="314.944,-243.5 447.955,-243.5 "/>
<text text-anchor="start" x="322.944" y="-228.3" font-family="Times,serif" font-size="14.00">id :integer</text>
<text text-anchor="start" x="322.944" y="-214.3" font-family="Times,serif" font-size="14.00">title :string</text>
<text text-anchor="start" x="322.944" y="-200.3" font-family="Times,serif" font-size="14.00">description :text</text>
<text text-anchor="start" x="322.944" y="-186.3" font-family="Times,serif" font-size="14.00">user_id :integer</text>
<text text-anchor="start" x="322.944" y="-172.3" font-family="Times,serif" font-size="14.00">url_id :integer</text>
<text text-anchor="start" x="322.944" y="-158.3" font-family="Times,serif" font-size="14.00">created_at :datetime</text>
<text text-anchor="start" x="322.944" y="-144.3" font-family="Times,serif" font-size="14.00">updated_at :datetime</text>
<text text-anchor="start" x="322.944" y="-130.3" font-family="Times,serif" font-size="14.00">group_id :integer</text>
</g>
<!-- Tag -->
<g id="node5" class="node"><title>Tag</title>
<path fill="none" stroke="black" d="M186.944,-0.5C186.944,-0.5 295.955,-0.5 295.955,-0.5 301.955,-0.5 307.955,-6.5 307.955,-12.5 307.955,-12.5 307.955,-74.5 307.955,-74.5 307.955,-80.5 301.955,-86.5 295.955,-86.5 295.955,-86.5 186.944,-86.5 186.944,-86.5 180.944,-86.5 174.944,-80.5 174.944,-74.5 174.944,-74.5 174.944,-12.5 174.944,-12.5 174.944,-6.5 180.944,-0.5 186.944,-0.5"/>
<text text-anchor="middle" x="241.45" y="-71.3" font-family="Times,serif" font-size="14.00">Tag</text>
<polyline fill="none" stroke="black" points="174.944,-64.5 307.955,-64.5 "/>
<text text-anchor="start" x="182.944" y="-49.3" font-family="Times,serif" font-size="14.00">id :integer</text>
<text text-anchor="start" x="182.944" y="-35.3" font-family="Times,serif" font-size="14.00">tagname :string</text>
<text text-anchor="start" x="182.944" y="-21.3" font-family="Times,serif" font-size="14.00">created_at :datetime</text>
<text text-anchor="start" x="182.944" y="-7.3" font-family="Times,serif" font-size="14.00">updated_at :datetime</text>
</g>
<!-- Bookmark&#45;&gt;Tag -->
<g id="edge1" class="edge"><title>Bookmark&#45;&gt;Tag</title>
<path fill="none" stroke="#7ed87e" d="M308.643,-116.013C301.68,-108.603 294.755,-101.232 288.142,-94.1942"/>
<polygon fill="#7ed87e" stroke="#7ed87e" points="308.702,-116.075 312.27,-126.444 312.125,-119.719 315.549,-123.363 315.549,-123.363 315.549,-123.363 312.125,-119.719 318.829,-120.282 308.702,-116.075 308.702,-116.075"/>
<polygon fill="#7ed87e" stroke="#7ed87e" points="287.951,-93.9903 284.383,-83.6211 284.527,-90.3464 281.103,-86.7025 281.103,-86.7025 281.103,-86.7025 284.527,-90.3464 277.824,-89.7839 287.951,-93.9903 287.951,-93.9903"/>
</g>
<!-- Group -->
<g id="node3" class="node"><title>Group</title>
<path fill="none" stroke="black" d="M201.944,-579.5C201.944,-579.5 310.955,-579.5 310.955,-579.5 316.955,-579.5 322.955,-585.5 322.955,-591.5 322.955,-591.5 322.955,-681.5 322.955,-681.5 322.955,-687.5 316.955,-693.5 310.955,-693.5 310.955,-693.5 201.944,-693.5 201.944,-693.5 195.944,-693.5 189.944,-687.5 189.944,-681.5 189.944,-681.5 189.944,-591.5 189.944,-591.5 189.944,-585.5 195.944,-579.5 201.944,-579.5"/>
<text text-anchor="middle" x="256.45" y="-678.3" font-family="Times,serif" font-size="14.00">Group</text>
<polyline fill="none" stroke="black" points="189.944,-671.5 322.955,-671.5 "/>
<text text-anchor="start" x="197.944" y="-656.3" font-family="Times,serif" font-size="14.00">id :integer</text>
<text text-anchor="start" x="197.944" y="-642.3" font-family="Times,serif" font-size="14.00">name :string</text>
<text text-anchor="start" x="197.944" y="-628.3" font-family="Times,serif" font-size="14.00">created_at :datetime</text>
<text text-anchor="start" x="197.944" y="-614.3" font-family="Times,serif" font-size="14.00">updated_at :datetime</text>
<text text-anchor="start" x="197.944" y="-600.3" font-family="Times,serif" font-size="14.00">owner_id :integer</text>
<text text-anchor="start" x="197.944" y="-586.3" font-family="Times,serif" font-size="14.00">description :text</text>
</g>
<!-- Group&#45;&gt;Bookmark -->
<g id="edge5" class="edge"><title>Group&#45;&gt;Bookmark</title>
<path fill="none" stroke="#bee62a" d="M238.314,-571.452C222.129,-500.95 207.265,-386.428 252.45,-302 266.06,-276.569 283.863,-283.94 306.45,-266 306.625,-265.861 306.8,-265.722 306.975,-265.582"/>
<ellipse fill="none" stroke="#bee62a" cx="239.27" cy="-575.509" rx="4.00001" ry="4.00001"/>
<polygon fill="#bee62a" stroke="#bee62a" points="307.147,-265.441 317.736,-262.592 311.017,-262.275 314.887,-259.109 314.887,-259.109 314.887,-259.109 311.017,-262.275 312.037,-255.626 307.147,-265.441 307.147,-265.441"/>
</g>
<!-- Membership -->
<g id="node4" class="node"><title>Membership</title>
<path fill="none" stroke="black" d="M141.458,-137.5C141.458,-137.5 285.441,-137.5 285.441,-137.5 291.441,-137.5 297.441,-143.5 297.441,-149.5 297.441,-149.5 297.441,-239.5 297.441,-239.5 297.441,-245.5 291.441,-251.5 285.441,-251.5 285.441,-251.5 141.458,-251.5 141.458,-251.5 135.458,-251.5 129.458,-245.5 129.458,-239.5 129.458,-239.5 129.458,-149.5 129.458,-149.5 129.458,-143.5 135.458,-137.5 141.458,-137.5"/>
<text text-anchor="middle" x="213.45" y="-236.3" font-family="Times,serif" font-size="14.00">Membership</text>
<polyline fill="none" stroke="black" points="129.458,-229.5 297.441,-229.5 "/>
<text text-anchor="start" x="137.458" y="-214.3" font-family="Times,serif" font-size="14.00">id :integer</text>
<text text-anchor="start" x="137.458" y="-200.3" font-family="Times,serif" font-size="14.00">acceptance_status :boolean</text>
<text text-anchor="start" x="137.458" y="-186.3" font-family="Times,serif" font-size="14.00">created_at :datetime</text>
<text text-anchor="start" x="137.458" y="-172.3" font-family="Times,serif" font-size="14.00">updated_at :datetime</text>
<text text-anchor="start" x="137.458" y="-158.3" font-family="Times,serif" font-size="14.00">user_id :integer</text>
<text text-anchor="start" x="137.458" y="-144.3" font-family="Times,serif" font-size="14.00">group_id :integer</text>
</g>
<!-- Group&#45;&gt;Membership -->
<g id="edge3" class="edge"><title>Group&#45;&gt;Membership</title>
<path fill="none" stroke="#8f9966" d="M227.397,-571.458C224.156,-562.077 221.345,-552.405 219.45,-543 200.019,-446.596 202.898,-332.091 207.555,-261.61"/>
<ellipse fill="none" stroke="#8f9966" cx="228.853" cy="-575.496" rx="4.00001" ry="4.00001"/>
<polygon fill="#8f9966" stroke="#8f9966" points="207.562,-261.514 212.742,-251.849 207.907,-256.526 208.253,-251.538 208.253,-251.538 208.253,-251.538 207.907,-256.526 203.763,-251.227 207.562,-261.514 207.562,-261.514"/>
</g>
<!-- User -->
<g id="node7" class="node"><title>User</title>
<path fill="none" stroke="black" d="M273.172,-302.5C273.172,-302.5 453.728,-302.5 453.728,-302.5 459.728,-302.5 465.728,-308.5 465.728,-314.5 465.728,-314.5 465.728,-530.5 465.728,-530.5 465.728,-536.5 459.728,-542.5 453.728,-542.5 453.728,-542.5 273.172,-542.5 273.172,-542.5 267.172,-542.5 261.172,-536.5 261.172,-530.5 261.172,-530.5 261.172,-314.5 261.172,-314.5 261.172,-308.5 267.172,-302.5 273.172,-302.5"/>
<text text-anchor="middle" x="363.45" y="-527.3" font-family="Times,serif" font-size="14.00">User</text>
<polyline fill="none" stroke="black" points="261.172,-520.5 465.728,-520.5 "/>
<text text-anchor="start" x="269.172" y="-505.3" font-family="Times,serif" font-size="14.00">id :integer</text>
<text text-anchor="start" x="269.172" y="-491.3" font-family="Times,serif" font-size="14.00">email :string</text>
<text text-anchor="start" x="269.172" y="-477.3" font-family="Times,serif" font-size="14.00">encrypted_password :string</text>
<text text-anchor="start" x="269.172" y="-463.3" font-family="Times,serif" font-size="14.00">reset_password_token :string</text>
<text text-anchor="start" x="269.172" y="-449.3" font-family="Times,serif" font-size="14.00">reset_password_sent_at :datetime</text>
<text text-anchor="start" x="269.172" y="-435.3" font-family="Times,serif" font-size="14.00">remember_created_at :datetime</text>
<text text-anchor="start" x="269.172" y="-421.3" font-family="Times,serif" font-size="14.00">sign_in_count :integer</text>
<text text-anchor="start" x="269.172" y="-407.3" font-family="Times,serif" font-size="14.00">current_sign_in_at :datetime</text>
<text text-anchor="start" x="269.172" y="-393.3" font-family="Times,serif" font-size="14.00">last_sign_in_at :datetime</text>
<text text-anchor="start" x="269.172" y="-379.3" font-family="Times,serif" font-size="14.00">current_sign_in_ip :string</text>
<text text-anchor="start" x="269.172" y="-365.3" font-family="Times,serif" font-size="14.00">last_sign_in_ip :string</text>
<text text-anchor="start" x="269.172" y="-351.3" font-family="Times,serif" font-size="14.00">created_at :datetime</text>
<text text-anchor="start" x="269.172" y="-337.3" font-family="Times,serif" font-size="14.00">updated_at :datetime</text>
<text text-anchor="start" x="269.172" y="-323.3" font-family="Times,serif" font-size="14.00">name :string</text>
<text text-anchor="start" x="269.172" y="-309.3" font-family="Times,serif" font-size="14.00">image :string</text>
</g>
<!-- Group&#45;&gt;User -->
<g id="edge4" class="edge"><title>Group&#45;&gt;User</title>
<path fill="none" stroke="#c25e1b" d="M289.39,-570.235C292.378,-564.315 295.467,-558.196 298.61,-551.967"/>
<polygon fill="#c25e1b" stroke="#c25e1b" points="289.349,-570.317 280.826,-577.217 287.096,-574.781 284.843,-579.244 284.843,-579.244 284.843,-579.244 287.096,-574.781 288.86,-581.272 289.349,-570.317 289.349,-570.317"/>
<polygon fill="#c25e1b" stroke="#c25e1b" points="298.744,-551.703 307.267,-544.803 300.997,-547.239 303.25,-542.775 303.25,-542.775 303.25,-542.775 300.997,-547.239 299.232,-540.748 298.744,-551.703 298.744,-551.703"/>
</g>
<!-- Url -->
<g id="node6" class="node"><title>Url</title>
<path fill="none" stroke="black" d="M495.944,-372.5C495.944,-372.5 604.955,-372.5 604.955,-372.5 610.955,-372.5 616.955,-378.5 616.955,-384.5 616.955,-384.5 616.955,-460.5 616.955,-460.5 616.955,-466.5 610.955,-472.5 604.955,-472.5 604.955,-472.5 495.944,-472.5 495.944,-472.5 489.944,-472.5 483.944,-466.5 483.944,-460.5 483.944,-460.5 483.944,-384.5 483.944,-384.5 483.944,-378.5 489.944,-372.5 495.944,-372.5"/>
<text text-anchor="middle" x="550.45" y="-457.3" font-family="Times,serif" font-size="14.00">Url</text>
<polyline fill="none" stroke="black" points="483.944,-450.5 616.955,-450.5 "/>
<text text-anchor="start" x="491.944" y="-435.3" font-family="Times,serif" font-size="14.00">id :integer</text>
<text text-anchor="start" x="491.944" y="-421.3" font-family="Times,serif" font-size="14.00">url :string</text>
<text text-anchor="start" x="491.944" y="-407.3" font-family="Times,serif" font-size="14.00">created_at :datetime</text>
<text text-anchor="start" x="491.944" y="-393.3" font-family="Times,serif" font-size="14.00">updated_at :datetime</text>
<text text-anchor="start" x="491.944" y="-379.3" font-family="Times,serif" font-size="14.00">icon :binary</text>
</g>
<!-- Url&#45;&gt;Bookmark -->
<g id="edge9" class="edge"><title>Url&#45;&gt;Bookmark</title>
<path fill="none" stroke="#a7ea70" d="M517.327,-365.582C504.578,-345.121 489.466,-322.078 474.45,-302 467.386,-292.555 459.698,-282.904 451.869,-273.457"/>
<ellipse fill="none" stroke="#a7ea70" cx="519.451" cy="-369.013" rx="4.00002" ry="4.00002"/>
<polygon fill="#a7ea70" stroke="#a7ea70" points="451.691,-273.245 448.719,-262.689 448.48,-269.411 445.269,-265.578 445.269,-265.578 445.269,-265.578 448.48,-269.411 441.82,-268.468 451.691,-273.245 451.691,-273.245"/>
</g>
<!-- User&#45;&gt;Bookmark -->
<g id="edge11" class="edge"><title>User&#45;&gt;Bookmark</title>
<path fill="none" stroke="#627944" d="M373.603,-294.017C374.099,-287.788 374.591,-281.618 375.071,-275.586"/>
<ellipse fill="none" stroke="#627944" cx="373.268" cy="-298.225" rx="4" ry="4"/>
<polygon fill="#627944" stroke="#627944" points="375.074,-275.546 380.354,-265.934 375.471,-270.561 375.868,-265.577 375.868,-265.577 375.868,-265.577 375.471,-270.561 371.383,-265.22 375.074,-275.546 375.074,-275.546"/>
</g>
<!-- User&#45;&gt;Membership -->
<g id="edge12" class="edge"><title>User&#45;&gt;Membership</title>
<path fill="none" stroke="#cc9206" d="M279.629,-295.209C271.589,-283.096 263.686,-271.189 256.296,-260.055"/>
<ellipse fill="none" stroke="#cc9206" cx="282.065" cy="-298.88" rx="4.00002" ry="4.00002"/>
<polygon fill="#cc9206" stroke="#cc9206" points="256.282,-260.034 254.501,-249.214 253.517,-255.868 250.752,-251.702 250.752,-251.702 250.752,-251.702 253.517,-255.868 247.003,-254.191 256.282,-260.034 256.282,-260.034"/>
</g>
<!-- ActiveRecord::Base -->
<g id="node8" class="node"><title>ActiveRecord::Base</title>
<ellipse fill="none" stroke="black" cx="306.45" cy="-766.5" rx="81.1422" ry="18"/>
<text text-anchor="middle" x="306.45" y="-762.3" font-family="Times,serif" font-size="14.00">ActiveRecord::Base</text>
</g>
<!-- ActiveRecord::Base&#45;&gt;Bookmark -->
<g id="edge2" class="edge"><title>ActiveRecord::Base&#45;&gt;Bookmark</title>
<path fill="none" stroke="black" d="M349.115,-751.074C422.085,-723.772 568.576,-656.853 626.45,-543 674.986,-447.517 685.182,-391.573 626.45,-302 587.222,-242.174 506.318,-215.778 448.204,-204.246"/>
</g>
<!-- ActiveRecord::Base&#45;&gt;Group -->
<g id="edge6" class="edge"><title>ActiveRecord::Base&#45;&gt;Group</title>
<path fill="none" stroke="black" d="M299.81,-748.503C294.311,-734.426 286.171,-713.587 278.424,-693.755"/>
</g>
<!-- ActiveRecord::Base&#45;&gt;Membership -->
<g id="edge7" class="edge"><title>ActiveRecord::Base&#45;&gt;Membership</title>
<path fill="none" stroke="black" d="M258.797,-751.864C230.635,-741.077 197.283,-722.907 180.45,-694 98.1756,-552.715 154.955,-349.218 190.617,-251.728"/>
</g>
<!-- ActiveRecord::Base&#45;&gt;Tag -->
<g id="edge8" class="edge"><title>ActiveRecord::Base&#45;&gt;Tag</title>
<path fill="none" stroke="black" d="M268.692,-750.416C220.929,-731.163 144.367,-699.66 140.45,-694 -4.05978,-485.196 -0.767651,-346.133 120.45,-123 132.403,-100.997 153.481,-84.2053 174.731,-71.9115"/>
</g>
<!-- ActiveRecord::Base&#45;&gt;Url -->
<g id="edge10" class="edge"><title>ActiveRecord::Base&#45;&gt;Url</title>
<path fill="none" stroke="black" d="M320,-748.537C349.195,-711.78 419.815,-621.74 474.45,-543 490.218,-520.275 506.804,-494.445 520.445,-472.628"/>
</g>
<!-- ActiveRecord::Base&#45;&gt;User -->
<g id="edge13" class="edge"><title>ActiveRecord::Base&#45;&gt;User</title>
<path fill="none" stroke="black" d="M313.913,-748.508C319.868,-734.234 327.935,-713.156 332.45,-694 343.97,-645.116 351.267,-590.213 355.863,-542.709"/>
</g>
</g>
</svg>
